<svg width="383" height="63" viewBox="0 0 383 63" fill="none" xmlns="http://www.w3.org/2000/svg">
<path d="M369.706 0C363.374 30.0292 363.106 30.5687 362.393 44.1448H370.866C375.86 30.5687 376.128 30.0292 382.459 0H369.706ZM356.73 61.497H368.904L371.579 48.1007H359.406L356.73 61.497Z" fill="white"/>
<path d="M0 61.737H12.4826V18.1455C12.4826 15.5381 11.8256 13.5011 11.0865 11.3012C10.8401 10.5679 11.0865 10.079 11.8256 9.91605C12.2362 9.83457 12.6468 10.079 12.8111 10.6494L28.3321 61.737H45.2493L60.7704 10.6494C60.9346 10.079 61.3452 9.83457 61.7558 9.91605C62.4949 10.079 62.7413 10.5679 62.4949 11.3012C61.7558 13.5011 61.0989 15.5381 61.0989 18.1455V61.737H73.5814V4.37545H51.2442L38.2689 48.3743C37.8583 49.841 37.7762 51.9594 37.7762 53.9149C37.7762 54.5668 37.4477 54.8927 36.7907 54.8927C36.1337 54.8927 35.8052 54.5668 35.8052 53.9149C35.8052 51.9594 35.7231 49.841 35.3125 48.3743L22.3372 4.37545H0V61.737Z" fill="white"/>
<path d="M79.4847 49.9224C79.4847 57.1741 87.2042 62.3888 96.6482 62.3888C106.503 62.3888 111.594 58.6407 116.111 53.0187C116.44 52.6113 116.686 51.7965 117.671 52.1224C118.575 52.4483 118.164 53.2631 117.754 53.9964C116.932 55.463 116.275 56.7667 116.275 58.7222V61.737H128.101V37.945C128.101 21.3232 117.425 18.064 105.517 18.064C94.0203 18.064 82.8517 22.2194 81.045 33.0562H92.7063C93.4454 29.5526 95.4985 27.1897 105.189 27.1897C114.797 27.1897 116.193 29.797 116.275 32.7303C116.358 36.7228 107.488 35.9895 98.2906 36.3969C87.2042 36.8857 79.4847 40.3893 79.4847 49.9224ZM116.275 40.4317C116.275 46.7402 107.324 53.5075 101.411 54.2409C95.5806 54.9742 91.3103 52.9372 91.3103 49.3521C91.3103 45.5226 94.1845 44.0559 99.851 43.6485C106.831 43.1597 113.155 43.1205 116.275 40.4317Z" fill="white"/>
<path d="M135.17 13.5011H146.995V3.07178H135.17V13.5011ZM135.17 61.737H146.995V18.7158H135.17V61.737Z" fill="white"/>
<path d="M153.331 3.07178V61.737H165.157V3.07178H153.331Z" fill="white"/>
<path d="M220.041 39.656C220.041 24.012 207.641 18.064 195.733 18.064C180.048 18.064 170.111 26.7823 170.111 40.2264C170.111 53.0187 179.309 62.3888 195.98 62.3888C209.694 62.3888 216.921 55.626 219.138 46.7447H207.066C205.588 50.3298 202.385 52.9372 196.144 52.9372C188.014 52.9372 182.758 49.3521 181.772 43.1597H219.713C219.959 41.9375 220.041 40.7968 220.041 39.656ZM182.347 35.3376C183.825 30.6118 187.685 26.8638 196.226 26.8638C203.781 26.8638 207.723 30.3674 208.216 35.3376H182.347Z" fill="white"/>
<path d="M263.908 3.07178V20.3454C263.908 22.0565 264.401 23.2787 265.058 24.8268C265.387 25.6416 265.961 26.6193 265.14 27.0267C264.483 27.3526 263.826 26.3749 263.58 26.049C260.131 21.5676 254.629 18.064 246.499 18.064C233.031 18.064 224.49 27.8415 224.49 40.2264C224.49 52.6113 233.031 62.3888 246.499 62.3888C254.382 62.3888 260.459 58.9667 263.58 54.3223C263.744 54.0779 264.237 53.2631 264.894 53.5075C265.879 53.9149 265.469 54.6482 265.058 55.463C264.319 56.9297 263.908 58.2333 263.908 59.8629V61.737H275.734V3.07178H263.908ZM249.701 52.2853C240.586 52.2853 236.315 46.7447 236.315 40.2264C236.315 33.708 240.586 28.1674 249.701 28.1674C257.174 28.1674 263.908 33.708 263.908 40.2264C263.908 46.7447 258.242 52.2853 249.701 52.2853Z" fill="white"/>
<path fill-rule="evenodd" clip-rule="evenodd" d="M303.479 61.6753H284.365V0.287598H303.479V61.6753ZM349.891 29.843H335.95V43.8497C335.95 44.3874 335.951 44.8289 335.959 45.2099C336.195 45.2149 336.462 45.2171 336.77 45.2171H349.891V61.6753H333.364C328.958 61.6753 324.684 61 321.616 58.11C318.5 55.1753 317.47 50.7725 317.47 45.4881V29.843H307.331V13.3848H317.47V2.14985H335.95V13.3848H349.891V29.843ZM310.867 16.9327H321.006V5.69775H332.413V16.9327H346.354V26.2951H332.413V43.8497C332.413 48.3749 332.492 48.765 336.77 48.765H346.354V58.1274H333.364C324.967 58.1274 321.006 55.3967 321.006 45.4881V26.2951H310.867V16.9327ZM299.942 3.8355V58.1274H287.902V3.8355H299.942Z" fill="white"/>
</svg>
