<svg width="14" height="13" viewBox="0 0 14 13" fill="none" xmlns="http://www.w3.org/2000/svg">
<g clip-path="url(#clip0_1068_3054)">
<path d="M12.9947 12.167L10.6021 9.77023L12.9947 12.167ZM11.928 6.56703C11.928 7.76934 11.4504 8.92241 10.6002 9.77258C9.75005 10.6227 8.59698 11.1004 7.39466 11.1004C6.19235 11.1004 5.03928 10.6227 4.18911 9.77258C3.33895 8.92241 2.86133 7.76934 2.86133 6.56703C2.86133 5.36471 3.33895 4.21164 4.18911 3.36147C5.03928 2.51131 6.19235 2.03369 7.39466 2.03369C8.59698 2.03369 9.75005 2.51131 10.6002 3.36147C11.4504 4.21164 11.928 5.36471 11.928 6.56703V6.56703Z" stroke="white" stroke-width="1.06667" stroke-linecap="round"/>
</g>
<defs>
<clipPath id="clip0_1068_3054">
<rect width="12.8" height="12.8" fill="white" transform="translate(0.978027 0.133545)"/>
</clipPath>
</defs>
</svg>
