<svg width="18" height="18" viewBox="0 0 18 18" fill="none" xmlns="http://www.w3.org/2000/svg">
<g clip-path="url(#clip0_1066_1623)">
<path d="M2.25 4.78125H15.75" stroke="#868E96" stroke-linecap="round" stroke-linejoin="round"/>
<path d="M7.3125 8.15625V13.2188" stroke="#868E96" stroke-linecap="round" stroke-linejoin="round"/>
<path d="M10.6875 8.15625V13.2188" stroke="#868E96" stroke-linecap="round" stroke-linejoin="round"/>
<path d="M3.09375 4.78125L3.9375 14.9063C3.9375 15.3538 4.11529 15.783 4.43176 16.0995C4.74822 16.416 5.17745 16.5938 5.625 16.5938H12.375C12.8226 16.5938 13.2518 16.416 13.5682 16.0995C13.8847 15.783 14.0625 15.3538 14.0625 14.9063L14.9062 4.78125" stroke="#868E96" stroke-linecap="round" stroke-linejoin="round"/>
<path d="M6.46875 4.78125V2.25C6.46875 2.02622 6.55764 1.81161 6.71588 1.65338C6.87411 1.49514 7.08872 1.40625 7.3125 1.40625H10.6875C10.9113 1.40625 11.1259 1.49514 11.2841 1.65338C11.4424 1.81161 11.5312 2.02622 11.5312 2.25V4.78125" stroke="#868E96" stroke-linecap="round" stroke-linejoin="round"/>
</g>
<defs>
<clipPath id="clip0_1066_1623">
<rect width="18" height="18" fill="white"/>
</clipPath>
</defs>
</svg>
