<svg width="163" height="32" viewBox="0 0 163 32" fill="none" xmlns="http://www.w3.org/2000/svg">
<path d="M153.191 3.71875C150.571 16.1434 150.461 16.3666 150.166 21.9837H153.671C155.738 16.3666 155.848 16.1434 158.468 3.71875H153.191ZM147.823 29.1633H152.859L153.966 23.6205H148.93L147.823 29.1633Z" fill="white"/>
<path d="M0.225098 29.2621H5.38978V11.226C5.38978 10.1472 5.11796 9.30443 4.81215 8.3942C4.71022 8.09079 4.81215 7.88851 5.11796 7.82109C5.28785 7.78738 5.45774 7.88851 5.5257 8.1245L11.9476 29.2621H18.9471L25.369 8.1245C25.4369 7.88851 25.6068 7.78738 25.7767 7.82109C26.0825 7.88851 26.1844 8.09079 26.0825 8.3942C25.7767 9.30443 25.5049 10.1472 25.5049 11.226V29.2621H30.6695V5.52865H21.4275L16.0589 23.7333C15.889 24.3401 15.8551 25.2166 15.8551 26.0257C15.8551 26.2954 15.7191 26.4303 15.4473 26.4303C15.1755 26.4303 15.0396 26.2954 15.0396 26.0257C15.0396 25.2166 15.0056 24.3401 14.8357 23.7333L9.46716 5.52865H0.225098V29.2621Z" fill="white"/>
<path d="M33.112 24.3738C33.112 27.3742 36.306 29.5318 40.2135 29.5318C44.2909 29.5318 46.3975 27.981 48.2663 25.6549C48.4022 25.4863 48.5042 25.1492 48.9119 25.284C49.2857 25.4189 49.1158 25.756 48.9459 26.0594C48.6061 26.6662 48.3343 27.2056 48.3343 28.0147V29.2621H53.2271V19.4181C53.2271 12.5408 48.81 11.1923 43.8831 11.1923C39.1262 11.1923 34.5051 12.9116 33.7576 17.3954H38.5825C38.8883 15.9457 39.7378 14.9681 43.7472 14.9681C47.7227 14.9681 48.3003 16.0469 48.3343 17.2605C48.3682 18.9124 44.6986 18.609 40.893 18.7776C36.306 18.9798 33.112 20.4295 33.112 24.3738ZM48.3343 20.447C48.3343 23.0572 44.6306 25.8572 42.1842 26.1606C39.7718 26.464 38.0049 25.6212 38.0049 24.1378C38.0049 22.5533 39.1941 21.9465 41.5386 21.778C44.4268 21.5757 47.0431 21.5595 48.3343 20.447Z" fill="white"/>
<path d="M56.1518 9.30443H61.0446V4.98926H56.1518V9.30443ZM56.1518 29.2621H61.0446V11.462H56.1518V29.2621Z" fill="white"/>
<path d="M63.6661 4.98926V29.2621H68.559V4.98926H63.6661Z" fill="white"/>
<path d="M91.2676 20.1261C91.2676 13.6533 86.1369 11.1923 81.2101 11.1923C74.7202 11.1923 70.6089 14.7995 70.6089 20.3621C70.6089 25.6549 74.4144 29.5318 81.312 29.5318C86.9864 29.5318 89.9764 26.7337 90.8939 23.059H85.8991C85.2875 24.5424 83.9623 25.6212 81.38 25.6212C78.0161 25.6212 75.8415 24.1378 75.4338 21.5757H91.1317C91.2336 21.07 91.2676 20.598 91.2676 20.1261ZM75.6716 18.3393C76.2832 16.384 77.8802 14.8332 81.4139 14.8332C84.5399 14.8332 86.1709 16.2829 86.3747 18.3393H75.6716Z" fill="white"/>
<path d="M109.418 4.98926V12.1363C109.418 12.8442 109.622 13.3499 109.893 13.9904C110.029 14.3276 110.267 14.7321 109.927 14.9007C109.656 15.0355 109.384 14.631 109.282 14.4961C107.855 12.6419 105.578 11.1923 102.214 11.1923C96.6419 11.1923 93.1082 15.2378 93.1082 20.3621C93.1082 25.4863 96.6419 29.5318 102.214 29.5318C105.476 29.5318 107.991 28.1159 109.282 26.1943C109.35 26.0931 109.554 25.756 109.825 25.8572C110.233 26.0257 110.063 26.3291 109.893 26.6662C109.588 27.2731 109.418 27.8125 109.418 28.4867V29.2621H114.311V4.98926H109.418ZM103.539 25.3515C99.7679 25.3515 98.0011 23.059 98.0011 20.3621C98.0011 17.6651 99.7679 15.3726 103.539 15.3726C106.632 15.3726 109.418 17.6651 109.418 20.3621C109.418 23.059 107.073 25.3515 103.539 25.3515Z" fill="white"/>
<path fill-rule="evenodd" clip-rule="evenodd" d="M125.791 29.2372H117.882V3.83789H125.791V29.2372ZM144.994 16.0665H139.226V21.8618C139.226 22.0843 139.226 22.2669 139.229 22.4246C139.327 22.4267 139.438 22.4276 139.565 22.4276H144.994V29.2372H138.155C136.333 29.2372 134.564 28.9578 133.295 27.762C132.006 26.5478 131.579 24.7261 131.579 22.5397V16.0665H127.384V9.25688H131.579V4.6084H139.226V9.25688H144.994V16.0665ZM128.848 10.7248H133.043V6.07635H137.762V10.7248H143.53V14.5986H137.762V21.8618C137.762 23.7341 137.795 23.8955 139.565 23.8955H143.53V27.7692H138.155C134.681 27.7692 133.043 26.6394 133.043 22.5397V14.5986H128.848V10.7248ZM124.327 5.30584V27.7692H119.346V5.30584H124.327Z" fill="white"/>
</svg>
