<svg width="248" height="52" viewBox="0 0 248 52" fill="none" xmlns="http://www.w3.org/2000/svg">
<path d="M239.41 4.20117C235.31 23.647 235.136 23.9963 234.674 32.7877H240.161C243.395 23.9963 243.569 23.647 247.669 4.20117H239.41ZM231.008 44.0243H238.891L240.623 35.3494H232.74L231.008 44.0243Z" fill="#5274EF"/>
<path d="M0 44.1791H8.08329V15.9507C8.08329 14.2622 7.65786 12.9432 7.17924 11.5186C7.0197 11.0437 7.17924 10.7271 7.65786 10.6216C7.92375 10.5688 8.18965 10.7271 8.29601 11.0964L18.3469 44.1791H29.3019L39.3529 11.0964C39.4592 10.7271 39.7251 10.5688 39.991 10.6216C40.4696 10.7271 40.6292 11.0437 40.4696 11.5186C39.991 12.9432 39.5656 14.2622 39.5656 15.9507V44.1791H47.6489V7.03367H33.184L24.7817 35.5259C24.5158 36.4756 24.4626 37.8475 24.4626 39.1138C24.4626 39.5359 24.2499 39.747 23.8244 39.747C23.399 39.747 23.1863 39.5359 23.1863 39.1138C23.1863 37.8475 23.1331 36.4756 22.8672 35.5259L14.4648 7.03367H0V44.1791Z" fill="#5274EF"/>
<path d="M51.4716 36.5284C51.4716 41.2243 56.4705 44.6012 62.5862 44.6012C68.9677 44.6012 72.2648 42.1741 75.1897 38.5334C75.4024 38.2696 75.562 37.7419 76.2001 37.953C76.7851 38.164 76.5192 38.6917 76.2533 39.1666C75.7215 40.1163 75.2961 40.9605 75.2961 42.2268V44.1791H82.9539V28.7722C82.9539 18.0084 76.0406 15.8979 68.3296 15.8979C60.8844 15.8979 53.652 18.5888 52.482 25.6064H60.0336C60.5122 23.3375 61.8417 21.8074 68.1168 21.8074C74.3389 21.8074 75.2429 23.4958 75.2961 25.3953C75.3493 27.9807 69.6059 27.5058 63.6498 27.7697C56.4705 28.0862 51.4716 30.3551 51.4716 36.5284ZM75.2961 30.3825C75.2961 34.4677 69.4995 38.85 65.6706 39.3248C61.8948 39.7997 59.1295 38.4806 59.1295 36.159C59.1295 33.6792 60.9908 32.7294 64.6602 32.4656C69.1804 32.149 73.2753 32.1237 75.2961 30.3825Z" fill="#5274EF"/>
<path d="M87.5313 12.9432H95.1892V6.18945H87.5313V12.9432ZM87.5313 44.1791H95.1892V16.32H87.5313V44.1791Z" fill="#5274EF"/>
<path d="M99.2921 6.18945V44.1791H106.95V6.18945H99.2921Z" fill="#5274EF"/>
<path d="M142.491 29.8802C142.491 19.7496 134.461 15.8979 126.75 15.8979C116.593 15.8979 110.158 21.5436 110.158 30.2495C110.158 38.5334 116.114 44.6012 126.91 44.6012C135.791 44.6012 140.471 40.2218 141.906 34.4706H134.089C133.132 36.7922 131.058 38.4806 127.016 38.4806C121.751 38.4806 118.348 36.159 117.71 32.149H142.279C142.438 31.3576 142.491 30.6189 142.491 29.8802ZM118.082 27.0837C119.039 24.0235 121.539 21.5964 127.069 21.5964C131.962 21.5964 134.514 23.8652 134.834 27.0837H118.082Z" fill="#5274EF"/>
<path d="M170.898 6.18945V17.3753C170.898 18.4833 171.217 19.2748 171.643 20.2773C171.856 20.8049 172.228 21.4381 171.696 21.7019C171.271 21.9129 170.845 21.2798 170.686 21.0687C168.452 18.1667 164.889 15.8979 159.624 15.8979C150.903 15.8979 145.372 22.2295 145.372 30.2495C145.372 38.2696 150.903 44.6012 159.624 44.6012C164.729 44.6012 168.665 42.3851 170.686 39.3776C170.792 39.2193 171.111 38.6917 171.536 38.85C172.175 39.1138 171.909 39.5887 171.643 40.1163C171.164 41.066 170.898 41.9102 170.898 42.9655V44.1791H178.556V6.18945H170.898ZM161.698 38.0585C155.795 38.0585 153.03 34.4706 153.03 30.2495C153.03 26.0285 155.795 22.4406 161.698 22.4406C166.538 22.4406 170.898 26.0285 170.898 30.2495C170.898 34.4706 167.229 38.0585 161.698 38.0585Z" fill="#5274EF"/>
<path fill-rule="evenodd" clip-rule="evenodd" d="M196.524 44.1401H184.146V4.3877H196.524V44.1401ZM226.579 23.5267H217.551V32.5969C217.551 32.9451 217.551 33.231 217.557 33.4777C217.709 33.481 217.883 33.4824 218.082 33.4824H226.579V44.1401H215.876C213.023 44.1401 210.255 43.7028 208.268 41.8313C206.251 39.9309 205.584 37.0798 205.584 33.6579V23.5267H199.018V12.8689H205.584V5.59362H217.551V12.8689H226.579V23.5267ZM201.308 15.1664H207.874V7.89111H215.26V15.1664H224.288V21.2292H215.26V32.5969C215.26 35.5272 215.312 35.7798 218.082 35.7798H224.288V41.8426H215.876C210.439 41.8426 207.874 40.0743 207.874 33.6579V21.2292H201.308V15.1664ZM194.234 6.68519V41.8426H186.437V6.68519H194.234Z" fill="#5274EF"/>
</svg>
