<svg width="24" height="24" viewBox="0 0 24 24" fill="none" xmlns="http://www.w3.org/2000/svg">
<path fill-rule="evenodd" clip-rule="evenodd" d="M12 3C7.02944 3 3 7.02944 3 12C3 16.9706 7.02944 21 12 21C16.9706 21 21 16.9706 21 12C21 7.02944 16.9706 3 12 3ZM1 12C1 5.92487 5.92487 1 12 1C18.0751 1 23 5.92487 23 12C23 18.0751 18.0751 23 12 23C5.92487 23 1 18.0751 1 12Z" fill="#5274EF"/>
<path fill-rule="evenodd" clip-rule="evenodd" d="M12.3676 7.82958C11.9021 7.74973 11.4233 7.83721 11.0161 8.07652C10.6089 8.31584 10.2996 8.69155 10.1428 9.1371C9.95955 9.65809 9.38864 9.93187 8.86765 9.74859C8.34666 9.56532 8.07288 8.9944 8.25616 8.47342C8.56963 7.58231 9.18836 6.83089 10.0028 6.35226C10.8172 5.87363 11.7747 5.69867 12.7057 5.85836C13.6368 6.01806 14.4812 6.50212 15.0896 7.22479C15.6978 7.94731 16.0308 8.86174 16.0295 9.80617C16.029 11.3365 14.8944 12.3471 14.0842 12.8873C13.6486 13.1777 13.22 13.3913 12.9044 13.5316C12.7451 13.6023 12.611 13.6561 12.5144 13.6929C12.466 13.7113 12.4268 13.7256 12.3982 13.7358L12.3635 13.7479L12.3524 13.7517L12.3485 13.753L12.347 13.7535C12.3467 13.7536 12.3457 13.7539 12.0295 12.8053L12.3457 13.7539C11.8218 13.9286 11.2555 13.6454 11.0808 13.1215C10.9063 12.5979 11.1889 12.032 11.7122 11.8569L11.7109 11.8574C11.711 11.8573 11.7111 11.8573 11.7122 11.8569L11.7282 11.8513C11.7436 11.8459 11.7688 11.8367 11.8024 11.8239C11.8698 11.7982 11.9701 11.7582 12.0921 11.7039C12.3389 11.5942 12.6604 11.4328 12.9748 11.2232C13.6644 10.7635 14.0295 10.2744 14.0295 9.80526L14.0295 9.80377C14.0302 9.33145 13.8637 8.87412 13.5595 8.51279C13.2554 8.15145 12.8331 7.90943 12.3676 7.82958Z" fill="#5274EF"/>
<path fill-rule="evenodd" clip-rule="evenodd" d="M12 11.8516C12.5523 11.8516 13 12.2993 13 12.8516V14.0516C13 14.6038 12.5523 15.0516 12 15.0516C11.4477 15.0516 11 14.6038 11 14.0516V12.8516C11 12.2993 11.4477 11.8516 12 11.8516Z" fill="#5274EF"/>
<path fill-rule="evenodd" clip-rule="evenodd" d="M11 17C11 16.4477 11.4477 16 12 16H12.01C12.5623 16 13.01 16.4477 13.01 17C13.01 17.5523 12.5623 18 12.01 18H12C11.4477 18 11 17.5523 11 17Z" fill="#5274EF"/>
</svg>
